<?xml version="1.0" encoding="UTF-8" standalone="no"?>
<!-- Generator: Adobe Illustrator 16.0.0, SVG Export Plug-In . SVG Version: 6.00 Build 0)  -->

<svg
   xmlns:dc="http://purl.org/dc/elements/1.1/"
   xmlns:cc="http://creativecommons.org/ns#"
   xmlns:rdf="http://www.w3.org/1999/02/22-rdf-syntax-ns#"
   xmlns:svg="http://www.w3.org/2000/svg"
   xmlns="http://www.w3.org/2000/svg"
   xmlns:sodipodi="http://sodipodi.sourceforge.net/DTD/sodipodi-0.dtd"
   xmlns:inkscape="http://www.inkscape.org/namespaces/inkscape"
   version="1.1"
   id="Capa_1"
   x="0px"
   y="0px"
   width="537.794px"
   height="537.795px"
   viewBox="0 0 537.794 537.795"
   style="enable-background:new 0 0 537.794 537.795;"
   xml:space="preserve"
   sodipodi:docname="arrow.svg"
   inkscape:version="0.92.2 5c3e80d, 2017-08-06"><metadata
     id="metadata45"><rdf:RDF><cc:Work
         rdf:about=""><dc:format>image/svg+xml</dc:format><dc:type
           rdf:resource="http://purl.org/dc/dcmitype/StillImage" /></cc:Work></rdf:RDF></metadata><defs
     id="defs43" /><sodipodi:namedview
     pagecolor="#ffffff"
     bordercolor="#666666"
     borderopacity="1"
     objecttolerance="10"
     gridtolerance="10"
     guidetolerance="10"
     inkscape:pageopacity="0"
     inkscape:pageshadow="2"
     inkscape:window-width="1007"
     inkscape:window-height="757"
     id="namedview41"
     showgrid="false"
     inkscape:zoom="0.43882894"
     inkscape:cx="268.897"
     inkscape:cy="268.89749"
     inkscape:window-x="0"
     inkscape:window-y="0"
     inkscape:window-maximized="0"
     inkscape:current-layer="Capa_1" /><g
     id="g8"
     transform="matrix(0.63530308,0,0,0.67372882,92.380487,91.151696)"><g
       id="g6"><path
         d="M 463.091,466.114 H 74.854 c -11.857,0 -21.497,9.716 -21.497,21.497 v 28.688 c 0,11.857 9.716,21.496 21.497,21.496 h 388.084 c 11.857,0 21.496,-9.716 21.496,-21.496 v -28.688 c 0.231,-11.934 -9.485,-21.497 -21.343,-21.497 z"
         id="path2"
         inkscape:connector-curvature="0" /><path
         d="m 253.94,427.635 c 4.208,4.208 9.716,6.35 15.147,6.35 5.508,0 11.016,-2.142 15.147,-6.35 L 431.267,280.602 c 8.339,-8.338 8.339,-21.955 0,-30.447 l -20.349,-20.349 c -8.339,-8.339 -21.956,-8.339 -30.447,0 l -75.582,75.659 V 21.497 C 304.889,9.639 295.173,0 283.393,0 H 254.705 C 242.848,0 233.208,9.562 233.208,21.497 V 305.541 L 157.55,229.882 c -8.339,-8.338 -22.032,-8.338 -30.447,0 l -20.349,20.349 c -8.338,8.338 -8.338,22.032 0,30.447 z"
         id="path4"
         inkscape:connector-curvature="0" /></g></g><g
     id="g10" /><g
     id="g12" /><g
     id="g14" /><g
     id="g16" /><g
     id="g18" /><g
     id="g20" /><g
     id="g22" /><g
     id="g24" /><g
     id="g26" /><g
     id="g28" /><g
     id="g30" /><g
     id="g32" /><g
     id="g34" /><g
     id="g36" /><g
     id="g38" /></svg>