<?xml version="1.0" encoding="UTF-8" standalone="no"?>
<!-- Generator: Adobe Illustrator 21.0.0, SVG Export Plug-In . SVG Version: 6.00 Build 0)  -->

<svg
   xmlns:dc="http://purl.org/dc/elements/1.1/"
   xmlns:cc="http://creativecommons.org/ns#"
   xmlns:rdf="http://www.w3.org/1999/02/22-rdf-syntax-ns#"
   xmlns:svg="http://www.w3.org/2000/svg"
   xmlns="http://www.w3.org/2000/svg"
   xmlns:sodipodi="http://sodipodi.sourceforge.net/DTD/sodipodi-0.dtd"
   xmlns:inkscape="http://www.inkscape.org/namespaces/inkscape"
   version="1.1"
   id="Layer_1"
   x="0px"
   y="0px"
   viewBox="0 0 525.5 341.8"
   style="enable-background:new 0 0 525.5 341.8;"
   xml:space="preserve"
   inkscape:version="0.91+devel+osxmenu r12898"
   sodipodi:docname="sense_logo.svg"><metadata
     id="metadata16707"><rdf:RDF><cc:Work
         rdf:about=""><dc:format>image/svg+xml</dc:format><dc:type
           rdf:resource="http://purl.org/dc/dcmitype/StillImage" /></cc:Work></rdf:RDF></metadata><defs
     id="defs16705" /><sodipodi:namedview
     pagecolor="#ffffff"
     bordercolor="#666666"
     borderopacity="1"
     objecttolerance="10"
     gridtolerance="10"
     guidetolerance="10"
     inkscape:pageopacity="0"
     inkscape:pageshadow="2"
     inkscape:window-width="783"
     inkscape:window-height="480"
     id="namedview16703"
     showgrid="false"
     inkscape:zoom="0.57467569"
     inkscape:cx="262.75"
     inkscape:cy="170.89999"
     inkscape:window-x="0"
     inkscape:window-y="23"
     inkscape:window-maximized="0"
     inkscape:current-layer="Layer_1" /><g
     id="g16699"
     style="fill:#ffffff"><path
       d="M317.5,77.2l-89.4-58.5L11.2,19.2V9.3l221.1,1.1l88.5,56.8L516,68.1v9.3L317.5,77.2z M298.2,329.7l-89.1-58.5L16,271.7   v-9.9l197.7,0.8l88.2,56.8l210.4,0.8v9.3H298.2z M72.8,167.9c0.4,0.4,1.1,1.4,2.3,3.1c1.1,1.7,2.3,3.9,3.4,6.6   c1.1,2.7,1.7,5.7,1.7,8.9v10.2c0,6.8-1.8,12.3-5.5,16.4c-3.7,4.2-8.3,6.2-14,6.2c-5.5,0-10-2.1-13.7-6.4c-3.7-4.2-5.5-9.7-5.5-16.3   v-13.3H28.2v13.3c0,10.7,2.9,19.4,8.8,25.9c5.8,6.5,13.8,9.8,23.8,9.8c9.2,0,17-3.3,23.3-10c6.3-6.7,9.5-15.2,9.5-25.6v-10.2   c0-4.5-0.6-8.7-1.8-12.4c-1.2-3.8-2.5-6.7-3.8-8.8c-1.3-2.1-2.2-3.4-2.5-4L46,114.5c-0.2-0.4-0.7-1.1-1.4-2.3   c-0.8-1.1-1.5-2.8-2.1-5.1c-0.7-2.3-1-4.9-1-7.9v-5.7c0-7.5,1.8-13.2,5.4-17c3.6-3.8,8.2-5.7,13.9-5.7c5.7,0,10.3,1.9,14,5.8   c3.7,3.9,5.5,8.5,5.5,14v12.4h13.3V90.7c0-9-3.2-16.8-9.6-23.3c-6.4-6.5-14.1-9.8-23.2-9.8c-9.2,0-17,3.2-23.2,9.5   c-6.2,6.3-9.3,14.9-9.3,25.9v6.2c0,4.3,0.6,8.3,1.7,11.9c1.1,3.6,2.3,6.4,3.5,8.3c1.2,2,2,3.3,2.4,3.8L72.8,167.9z M191.3,73.5v-13   h-54.6v169.7h56.6v-13.3H150v-64.8h33.7v-13.6H150v-65H191.3z M232.1,231.3l11,7.9l0.3-155.8h0.3l40.7,176.7l18.9,14.1l0.3-172.2   L291.7,95l0.3,152.1L253.8,76.9l-21.2-11.6L232.1,231.3z M391.3,223.9c0.2,0.2,0.7,0.9,1.4,2.1c0.8,1.2,1.5,3,2.1,5.4   c0.7,2.4,1,5.1,1,8.3v10.2c0,6.8-1.8,12.3-5.5,16.4c-3.7,4.1-8.3,6.2-14,6.2c-5.5,0-10-2.1-13.7-6.4c-3.7-4.2-5.5-9.7-5.5-16.3   v-13.3h-13.3v13.3c0,10.7,2.9,19.4,8.8,25.9c5.8,6.5,13.8,9.8,23.8,9.8c9.2,0,17-3.3,23.3-10c6.3-6.7,9.5-15.2,9.5-25.6v-10.2   c0-4.5-0.6-8.7-1.7-12.4c-1.1-3.8-2.3-6.6-3.5-8.6c-1.2-2-2-3.3-2.4-3.8l-39.9-47.2c-0.2-0.4-0.7-1.1-1.4-2.3   c-0.8-1.1-1.5-2.8-2.1-5.1c-0.7-2.3-1-4.9-1-7.9v-5.7c0-7.5,1.8-13.2,5.4-17c3.6-3.8,8.2-5.7,13.9-5.7c5.7,0,10.3,1.9,14,5.8   c3.7,3.9,5.5,8.5,5.5,14v12.4h13.3v-12.4c0-9-3.2-16.8-9.6-23.3c-6.4-6.5-14.1-9.8-23.2-9.8c-9.2,0-17,3.2-23.2,9.5   c-6.2,6.3-9.3,14.9-9.3,25.9v6.2c0,4.3,0.6,8.3,1.7,11.9c1.1,3.6,2.3,6.4,3.5,8.3c1.2,2,2,3.3,2.4,3.8L391.3,223.9z M503.5,126.7   v-13h-54.3V283h56v-12.4h-42.7V205h33.9v-13h-33.9v-65.3H503.5z"
       id="path16701"
       style="fill:#ffffff" /></g></svg>