<?xml version="1.0" encoding="utf-8"?>
<!-- Generator: Adobe Illustrator 21.0.0, SVG Export Plug-In . SVG Version: 6.00 Build 0)  -->
<svg version="1.1" id="Layer_1" xmlns="http://www.w3.org/2000/svg" xmlns:xlink="http://www.w3.org/1999/xlink" x="0px" y="0px"
	 viewBox="0 0 231.3 326.5" style="enable-background:new 0 0 231.3 326.5;" xml:space="preserve">
<style type="text/css">
	.st0{fill:#DA2E29;}
</style>
<g>
	<path class="st0" d="M27.3,25.2v273.8H13.7V11.6h191.4v13.6H27.3z M218.7,25.2v287.4H27.3v-13.6h177.8V25.2H218.7z M44.2,65.9h-5.7
		V55.1h5.7l0.9-15.4h11.5v15.4h11.5v10.9H56.6v23.8c0,1.8,0.6,3.4,1.7,4.8c1.1,1.4,2.9,2.1,5.3,2.1c1.6,0,3.4-0.6,5.4-1.8l3,7.2
		c-3.6,3.6-8.1,5.4-13.6,5.4c-9.5-0.2-14.2-4.6-14.2-13.3V65.9z M39.7,191.8l16-25.4l-16-25.1h13.6l9.7,15.4l9.1-15.4h13.3
		l-15.7,24.4l16.9,26H72l-9.7-15.4l-9.1,15.4H39.7z M46,245.5h42.9v13H46V245.5z M87.7,100.9c-4.6-4.6-6.9-11.2-6.9-19.6
		c0-8.9,2.2-15.8,6.5-21c4.3-5.1,9.9-7.7,16.8-7.7c7.6,0,13.3,2.9,16.9,8.6s5.2,13,4.8,21.9h-32c0.2,8.3,4.7,12.4,13.6,12.4
		c3,0,5.5-0.3,7.4-0.9c1.9-0.6,3.9-1.6,5.9-3l3.6,7.2c-1.6,2.4-4.2,4.5-7.8,6.3c-3.6,1.8-7.4,2.7-11.5,2.7
		C98,107.9,92.3,105.6,87.7,100.9z M97.2,66.1c-1.9,1.7-3,4.2-3.2,7.4h18.7c0.2-3-0.6-5.4-2.4-7.2c-1.8-1.8-3.9-2.7-6.3-2.7
		C101.4,63.5,99.1,64.4,97.2,66.1z M116.7,192.1c-10.1,0-15.1-4.4-15.1-13.3v-28.4h-5.7v-10.9h5.7l0.9-15.4h11.5v15.4h11.5v10.9
		h-11.5v23.8c0,1.8,0.6,3.4,1.7,4.8c1.1,1.4,2.9,2.1,5.3,2.1c1.6,0,3.4-0.6,5.4-1.8l3,7.2C125.7,190.3,121.5,192.1,116.7,192.1z
		 M147.6,229.5c3.1,2.8,4.7,6.6,4.7,11.5l0.3,38.3h-11.2l-0.3-5.1c-1.6,1.8-3.6,3.2-6,4.2c-2.4,1-5,1.5-7.8,1.5
		c-5.2,0-9.4-1.5-12.4-4.5c-3-3-4.5-6.7-4.5-11.2c0-5.8,2.1-10.5,6.3-13.9c4.2-3.4,9.8-5.1,16.6-5.1c2,0,4.2,0.2,6.6,0.6v-2.1
		c0-4.4-3.1-6.6-9.4-6.6c-4.2,0-8.7,1.3-13.3,3.9l-3.3-9.1c2-1.6,5-3.1,8.9-4.5c3.9-1.4,7.6-2.1,11-2.1
		C139.9,225.3,144.5,226.7,147.6,229.5z M139.9,263.9v-7.2c-2.4-0.6-4.8-0.9-7.2-0.9c-6.6,0-10,2.4-10,7.2c0,1.8,0.7,3.2,2,4.2
		c1.3,1,3.1,1.5,5.3,1.5C134.2,268.8,137.5,267.1,139.9,263.9z M171.6,185.1c-1.4,2-3.5,3.8-6.3,5.3c-2.8,1.5-5.8,2.3-9.1,2.3
		c-5,0-8.9-1.4-11.6-4.2c-2.7-2.8-4.1-6.4-4.1-10.9v-38.3h12.7l-0.3,22.3c0,4.6,0.2,8.8,0.6,12.4c0.6,4.2,3,6.3,7.2,6.3
		c1.8,0,3.7-0.6,5.6-1.8c1.9-1.2,3.4-2.7,4.4-4.5c0-16.7-0.1-28.3-0.3-34.7h12.7c0.2,11.9,0.3,29.4,0.3,52.5h-11.5L171.6,185.1z
		 M142.6,70.8h42.9v13h-42.9V70.8z M171.3,210.8l12.7-0.3v68.8h-12.4L171.3,210.8z"/>
</g>
</svg>
